# xmcd
#
# Track frame offsets:
#	150
#	13107
#	23709
#	34755
#	49316
#	59596
#	69389
#	82310
#	97230
#	112326
#	125616
#	137082
#	151661
#	163262
#	175447
#	184597
#	194008
#	203904
#	215740
#	230327
#
# Disc length: 3240 seconds
#
# Revision: 0
# Processed by: cddbd v1.5.2PL0 Copyright (c) Steve Scherf et al.
# Submitted via: audiograbber 1.83.01
#
DISCID=350ca614
DTITLE=Wanda Jackson - The Famous Wanda Jackson CD4
DYEAR=2012
DGENRE=Country
TTITLE0=Fallin'
TTITLE1=Famous Last Words
TTITLE2=Fancy Satin Pillows
TTITLE3=Fever
TTITLE4=Fujiyama Mama
TTITLE5=Funnel Of Love
TTITLE6=Funny How Time Slips Away
TTITLE7=Games Poeple Play (w. Mike Post)
TTITLE8=Give Me The Right
TTITLE9=Good Rockin' Tonight
TTITLE10=Gotta Know
TTITLE11=Half As Good A Girl
TTITLE12=Happy Tracks
TTITLE13=Happy, Happy Birthday
TTITLE14=Hard Headed Woman
TTITLE15=Have I Grown Used To Missing You
TTITLE16=Have You Ever Been Lonely
TTITLE17=He Gives Us All His Love
TTITLE18=Heart Trouble
TTITLE19=Heartbreak Ahead
EXTD=
EXTT0=
EXTT1=
EXTT2=
EXTT3=
EXTT4=
EXTT5=
EXTT6=
EXTT7=
EXTT8=
EXTT9=
EXTT10=
EXTT11=
EXTT12=
EXTT13=
EXTT14=
EXTT15=
EXTT16=
EXTT17=
EXTT18=
EXTT19=
PLAYORDER=
